<svg width="143" height="60" viewBox="0 0 143 60" fill="none" xmlns="http://www.w3.org/2000/svg">
<path d="M21.76 16.08V20.6H14.32V44H8.72V20.6H1.28V16.08H21.76ZM31.4459 25.28C32.1659 24.1067 33.0993 23.1867 34.2459 22.52C35.4193 21.8533 36.7526 21.52 38.2459 21.52V27.4H36.7659C35.0059 27.4 33.6726 27.8133 32.7659 28.64C31.8859 29.4667 31.4459 30.9067 31.4459 32.96V44H25.8459V21.84H31.4459V25.28ZM44.8578 19.2C43.8711 19.2 43.0445 18.8933 42.3778 18.28C41.7378 17.64 41.4178 16.8533 41.4178 15.92C41.4178 14.9867 41.7378 14.2133 42.3778 13.6C43.0445 12.96 43.8711 12.64 44.8578 12.64C45.8445 12.64 46.6578 12.96 47.2978 13.6C47.9645 14.2133 48.2978 14.9867 48.2978 15.92C48.2978 16.8533 47.9645 17.64 47.2978 18.28C46.6578 18.8933 45.8445 19.2 44.8578 19.2ZM47.6178 21.84V44H42.0178V21.84H47.6178ZM58.7506 25.04C59.4706 24.0267 60.4573 23.1867 61.7106 22.52C62.9906 21.8267 64.444 21.48 66.0706 21.48C67.964 21.48 69.6706 21.9467 71.1906 22.88C72.7373 23.8133 73.9506 25.1467 74.8306 26.88C75.7373 28.5867 76.1906 30.5733 76.1906 32.84C76.1906 35.1067 75.7373 37.12 74.8306 38.88C73.9506 40.6133 72.7373 41.96 71.1906 42.92C69.6706 43.88 67.964 44.36 66.0706 44.36C64.444 44.36 63.004 44.0267 61.7506 43.36C60.524 42.6933 59.524 41.8533 58.7506 40.84V54.56H53.1506V21.84H58.7506V25.04ZM70.4706 32.84C70.4706 31.5067 70.1906 30.36 69.6306 29.4C69.0973 28.4133 68.3773 27.6667 67.4706 27.16C66.5906 26.6533 65.6306 26.4 64.5906 26.4C63.5773 26.4 62.6173 26.6667 61.7106 27.2C60.8306 27.7067 60.1106 28.4533 59.5506 29.44C59.0173 30.4267 58.7506 31.5867 58.7506 32.92C58.7506 34.2533 59.0173 35.4133 59.5506 36.4C60.1106 37.3867 60.8306 38.1467 61.7106 38.68C62.6173 39.1867 63.5773 39.44 64.5906 39.44C65.6306 39.44 66.5906 39.1733 67.4706 38.64C68.3773 38.1067 69.0973 37.3467 69.6306 36.36C70.1906 35.3733 70.4706 34.2 70.4706 32.84Z" fill="#FACC15"/>
<path d="M126.36 32.44C126.36 33.24 126.307 33.96 126.2 34.6H110C110.133 36.2 110.693 37.4533 111.68 38.36C112.667 39.2667 113.88 39.72 115.32 39.72C117.4 39.72 118.88 38.8267 119.76 37.04H125.8C125.16 39.1733 123.933 40.9333 122.12 42.32C120.307 43.68 118.08 44.36 115.44 44.36C113.307 44.36 111.387 43.8933 109.68 42.96C108 42 106.68 40.6533 105.72 38.92C104.787 37.1867 104.32 35.1867 104.32 32.92C104.32 30.6267 104.787 28.6133 105.72 26.88C106.653 25.1467 107.96 23.8133 109.64 22.88C111.32 21.9467 113.253 21.48 115.44 21.48C117.547 21.48 119.427 21.9333 121.08 22.84C122.76 23.7467 124.053 25.04 124.96 26.72C125.893 28.3733 126.36 30.28 126.36 32.44ZM120.56 30.84C120.533 29.4 120.013 28.2533 119 27.4C117.987 26.52 116.747 26.08 115.28 26.08C113.893 26.08 112.72 26.5067 111.76 27.36C110.827 28.1867 110.253 29.3467 110.04 30.84H120.56ZM136.048 14.4V44H130.448V14.4H136.048Z" fill="#2563EB"/>
<path d="M90 44.1041C96.6274 44.1041 102 42.8458 102 41.2936C102 39.7415 96.6274 38.4832 90 38.4832C83.3726 38.4832 78 39.7415 78 41.2936C78 42.8458 83.3726 44.1041 90 44.1041Z" fill="#2563EB"/>
<path d="M90 42.5364C94.0209 42.5364 97.2804 41.98 97.2804 41.2936C97.2804 40.6073 94.0209 40.0509 90 40.0509C85.9792 40.0509 82.7196 40.6073 82.7196 41.2936C82.7196 41.98 85.9792 42.5364 90 42.5364Z" fill="white"/>
<path d="M99.0223 11C98.8185 10.9996 98.6156 11.0286 98.4202 11.0863C97.9802 11.2243 97.5939 11.4934 97.3137 11.8568L89.849 21.9298C89.8694 21.9633 89.8847 21.9844 89.8898 21.9821C89.8949 21.9798 89.8541 21.8389 89.8434 21.8412C89.8147 21.8485 89.8504 21.9591 89.8481 21.9298L82.9192 11.9059C82.2759 11.2878 81.8539 11.0702 81.2055 11.073C80.3297 11.0675 79.7915 11.7458 79.779 12.6333C79.779 13.1088 79.9772 13.6921 80.169 14.2308L88.2372 36.2624C88.6383 37.3932 89.2562 37.9123 90.0102 37.9095C90.748 37.9059 91.3677 37.3822 91.7781 36.2482L100.032 14.1478C100.115 14.0408 100.595 13.3942 100.436 12.547C100.301 11.8261 99.756 11.2345 99.0223 11Z" fill="#2563EB"/>
</svg>
